<?xml version="1.0" encoding="UTF-8"?>
<svg xmlns="http://www.w3.org/2000/svg" class="svgBody" width="520" height="600" viewBox="0 0 520 600">
   <rect width="520" height="600" rx="26" style="fill:#6f4cff" />
   <rect x="30" y="40" width="460" height="520" rx="26" style="fill:#ffffff" />
   <rect x="30" y="310" width="460" height="110" style="fill:#fff176" />

   <text x="30" y="28" class="small">Oxd70804463bb2760c3384fc87bbe779e3d91bab3a</text>
   <text x="42" y="96" class="large">The Graph Curator</text>
   <text x="42" y="146" class="medium">ID: 1</text>
   <text text-anchor="end" x="305" y="146" class="medium">1/2501</text>
   <text x="42" y="192" class="medium">TIMES: 21</text>
   <text x="42" y="242" class="medium">STARTED ON: 2020.11.11</text>
   <text x="42" y="296" class="medium">SNAPSHOTTED ON: 2021.7.30</text>
   <text text-anchor="middle" x="250" y="369" class="tiny">Curators are critical to the Graph decentralized economy.</text>

   <svg x="348" y="52">
       <rect width="110" height="110" style="fill:#ffffff" />
       <g transform="scale(1.15)">
           <circle class="st2" cx="48" cy="48" r="48"/>
           <g transform="translate(-88.000000, -52.000000)">
               <path id="Fill-19" class="st1" d="M135.3,106.2c-7.1,0-12.8-5.7-12.8-12.8c0-7.1,5.7-12.8,12.8-12.8c7.1,0,12.8,5.7,12.8,12.8
            C148.1,100.5,142.4,106.2,135.3,106.2 M135.3,74.2c10.6,0,19.2,8.6,19.2,19.2s-8.6,19.2-19.2,19.2c-10.6,0-19.2-8.6-19.2-19.2
            S124.7,74.2,135.3,74.2z M153.6,113.6c1.3,1.3,1.3,3.3,0,4.5l-12.8,12.8c-1.3,1.3-3.3,1.3-4.5,0c-1.3-1.3-1.3-3.3,0-4.5l12.8-12.8
            C150.3,112.3,152.4,112.3,153.6,113.6z M161,77.4c0,1.8-1.4,3.2-3.2,3.2c-1.8,0-3.2-1.4-3.2-3.2s1.4-3.2,3.2-3.2
            C159.5,74.2,161,75.6,161,77.4z"/>
            </g>
       </g>
   </svg>

   <svg x="79" y="448">
       <rect width="88" height="88" rx="16" style="fill:#ce93d8" />
       <g transform="scale(0.5 0.5) translate(25 55)">
           <path class="st0" d="M60.9,19.1c7,0,13.2,3,17.8,7.7c4.6,4.8,7.4,11.4,7.4,18.6c0,1.9-0.2,3.8-0.6,5.7h31.6c2.1,0,2.6,1.2,2.6,2.6
        s-0.5,2.6-2.6,2.6H7.1c-2.1,0-2.6-1.2-2.6-2.6s0.5-2.6,2.6-2.6h29.2c-0.4-1.8-0.6-3.7-0.6-5.7c0-7.3,2.8-13.9,7.4-18.6
        C47.7,22.1,54,19.1,60.9,19.1L60.9,19.1L60.9,19.1z M63.4,70.4c-2.1,0-2.6-1.2-2.6-2.6s0.5-2.6,2.6-2.6h56.9c2.1,0,2.6,1.2,2.6,2.6
        s-0.5,2.6-2.6,2.6H63.4L63.4,70.4z M2.6,70.4c-2.1,0-2.6-1.2-2.6-2.6s0.5-2.6,2.6-2.6h29.5c2.1,0,2.6,1.2,2.6,2.6s-0.5,2.6-2.6,2.6
        H2.6L2.6,70.4z M38.4,9.5c-0.8-1.4-0.3-3.1,1-3.8s3.1-0.3,3.8,1l3.6,6.3c0.8,1.4,0.3,3.1-1,3.9s-3.1,0.3-3.8-1L38.4,9.5L38.4,9.5
        L38.4,9.5z M58.7,2.8c0-1.6,1.3-2.8,2.8-2.8s2.8,1.3,2.8,2.8v7.2c0,1.6-1.3,2.8-2.8,2.8s-2.8-1.3-2.8-2.8V2.8L58.7,2.8L58.7,2.8z
         M79.6,7.2c0.8-1.3,2.5-1.8,3.8-1s1.8,2.5,1,3.8l-3.6,6.3c-0.8,1.4-2.5,1.8-3.8,1c-1.3-0.8-1.8-2.5-1-3.8L79.6,7.2L79.6,7.2
        L79.6,7.2z M95.4,21.5c1.3-0.8,3.1-0.3,3.8,1s0.3,3.1-1,3.9L92,30c-1.3,0.8-3.1,0.3-3.8-1s-0.3-3.1,1-3.9L95.4,21.5L95.4,21.5
        L95.4,21.5z M102.1,41.8c1.6,0,2.8,1.3,2.8,2.8c0,1.6-1.3,2.8-2.8,2.8h-7.2c-1.6,0-2.8-1.3-2.8-2.8s1.3-2.8,2.8-2.8L102.1,41.8
        L102.1,41.8L102.1,41.8z M19.7,46.3c-1.6,0-2.8-1.3-2.8-2.8s1.3-2.8,2.8-2.8H27c1.6,0,2.8,1.3,2.8,2.8s-1.3,2.8-2.8,2.8H19.7
        L19.7,46.3L19.7,46.3z M24.1,25.4c-1.4-0.8-1.8-2.5-1-3.8c0.8-1.4,2.5-1.8,3.8-1l6.3,3.6c1.3,0.8,1.8,2.5,1,3.8s-2.5,1.8-3.8,1
        L24.1,25.4L24.1,25.4L24.1,25.4z"/>
       </g>
   </svg>

   <svg x="216" y="448">
       <rect width="88" height="88" rx="16" style="fill:#b2dfdb" />
       <g transform="scale(0.11 0.11) translate(150 150)">
           <path class="st0" d="M196.8,54.8c0,0,1.1-0.4,2.2-0.6c10.2-1.8,32.4,15.2,33.6,16.1c16.3,12.7,24.4,19,27.1,22.4
        c6.3,7.8,9.7,15.1,20.7,26.9c5.9,6.4,9.3,9.9,11,9c4.6-2.4-12.5-30.7-10-67c1.4-19.9,8.6-42.2,15.7-42.2c6.7,0,11.9,20.1,13.9,27.9
        c12.7,49.5-8.1,68.8,6,107.1c10.7,29.2,14.8,36.6,14.8,36.6c2.3,4.1,7.7,13.8,9.9,27.3c1.1,6.6,0.7,10.3-0.3,13.7
        c-0.2,0.5-4,12.2-13.9,15.2c-8.7,2.7-16.3-3.2-19.3,0.6c-1.8,2.3,0.1,5.5-2.4,8.1c-2,2-3.9,0.7-6,2.2c-4.5,3.1-0.1,12.2-3.6,22.4
        c-0.7,2.1-2.7,4.8-6.6,10.2c-12.5,17.1-19.5,21.6-18.1,27.6c0.6,2.4,2.6,5.5,1.5,9.6c0,0-0.4,1.4-1.2,2.8
        c-4.5,7.5-26.4,16.6-29.3,17.8c-16.9,7.1-19.4,9.5-23.7,7.6c-4.9-2.1-4.7-6.5-12.7-10.6c-3.4-1.7-4.9-1.7-9.9-4.3
        c-5.9-3.1-5.6-4.1-8.1-5c-6.2-2.1-9.2,3.2-22.3,7.5c-9.1,2.9-13.6,2.3-15.1,5.9c-1.6,3.8,1.6,9.4-0.3,10.6c-1,0.6-2.2-0.5-3.3,0.3
        c-1.2,0.9-0.3,2.8-1.2,4c-1.6,2.2-7.5,0.4-7.8,0.3c-11.8-3.7-24.6-2.3-36.8-4.7c-30.8-6-48.4-1.3-51.5-9.9c-1.1-3.1,0.8-4.4-0.6-9
        c-1.8-5.7-5.8-7.3-14.2-14.3c-9-7.4-13.6-11.4-15.3-17.7c-1.4-5-0.3-9,0.6-13.1c4.6-20.9,0.2-20.1,4.8-42.8
        c2.2-10.8,5.1-19.1,10.9-35.7c6.8-19.6,10.2-29.4,14.2-33.8c4.9-5.5,9-7,47-17.4c33.7-9.2,39.1-10.4,48.5-9.9
        c8.5,0.5,15.6,2.1,29.5,5.3c20.9,4.8,21.4,7.1,33.8,8.4c15,1.5,32.2,0,32.3,0l0,0c0,0,11.2-13.2,9.9-23.9c-0.7-5.9-5-9.6-11.2-14.9
        c-18.1-15.6-34.2-30.1-45.8-46.3c-5.3-7.4-8.8-13.9-6.9-19.9C188.2,62.2,191.4,56.8,196.8,54.8z"/>
    <ellipse class="st0" cx="319" cy="394.2" rx="152.7" ry="86.5"/>
       </g>
   </svg>

   <svg x="353" y="448">
       <rect width="88" height="88" rx="16" style="fill:#ffcc80" />
       <g transform="scale(0.4 0.4) translate(44 44)">
           <path class="st0" d="M9.6,114.8c4,4.3,12.6,2.3,23.2-3.6c-9.7-6.5-17.2-16-21.4-27.1C5.2,96.9,3.5,108.2,9.6,114.8L9.6,114.8z
         M110.6,31.4c4.9-9.6,6.4-17.4,2.7-21.5c-5.7-6.3-16.4-4.8-29,1.3C94.9,15.2,104.1,22.3,110.6,31.4L110.6,31.4z M64.5,7.7
        c4,0,7.8,0.4,11.6,1.2c17.2-9.7,32.9-12.5,41.6-3c5.6,6.1,3.7,17-2.9,29.8v0l0,0.1c-0.2,0.4-0.4,0.8-0.6,1.2l0.1,0.1
        c-14.1,31.1-41.4,57.5-73.3,76.3l-2.1,1.3l0,0c-14.5,8.5-26.9,11.3-33.5,4.2c-8.8-9.6-5.7-25.6,3.9-42.8c-0.8-3.8-1.2-7.7-1.2-11.7
        C7.9,33,33.2,7.7,64.5,7.7L64.5,7.7z M118.6,47.6c1.6,5.3,2.5,10.9,2.5,16.7c0,31.3-25.3,56.6-56.6,56.6c-5.9,0-11.5-0.9-16.8-2.5
        C79.2,99.6,103.1,76.2,118.6,47.6L118.6,47.6L118.6,47.6L118.6,47.6z"/>
       </g>
   </svg>


   <style>
   .svgBody {font-family: "Arial" }
   .tiny {font-size:15px; }
   .small {font-size: 17px;}
   .medium {font-size: 29px;}
   .large {font-size: 31px;}
   .st0{fill:#FFFFFF;}
   .st1{fill-rule:evenodd;clip-rule:evenodd;fill:#FFFFFF;}
   .st2{fill:#6747ED;}
   </style>
</svg>
